<svg width="16" height="16" viewBox="0 0 16 16" fill="none" xmlns="http://www.w3.org/2000/svg">
<path d="M3.3335 3.32667C3.3335 2.67922 3.3335 2.3555 3.46849 2.17706C3.58609 2.0216 3.76584 1.9254 3.96043 1.91378C4.18379 1.90044 4.45314 2.08001 4.99184 2.43915L12.0022 7.11273C12.4473 7.40948 12.6699 7.55785 12.7475 7.74487C12.8153 7.90837 12.8153 8.09213 12.7475 8.25563C12.6699 8.44264 12.4473 8.59102 12.0022 8.88777L4.99184 13.5614C4.45314 13.9205 4.18379 14.1001 3.96043 14.0867C3.76584 14.0751 3.58609 13.9789 3.46849 13.8234C3.3335 13.645 3.3335 13.3213 3.3335 12.6738V3.32667Z" fill="currrentColor" stroke="currentColor" stroke-width="2" stroke-linecap="round" stroke-linejoin="round"/>
</svg>
