<svg width="16" height="16" viewBox="0 0 16 16" fill="none" xmlns="http://www.w3.org/2000/svg">
<path d="M3.33301 3.32667C3.33301 2.67922 3.33301 2.3555 3.468 2.17706C3.5856 2.0216 3.76536 1.9254 3.95994 1.91378C4.1833 1.90044 4.45265 2.08001 4.99135 2.43915L12.0017 7.11273C12.4469 7.40948 12.6694 7.55785 12.747 7.74487C12.8148 7.90837 12.8148 8.09213 12.747 8.25563C12.6694 8.44264 12.4469 8.59102 12.0017 8.88777L4.99135 13.5614C4.45265 13.9205 4.1833 14.1001 3.95994 14.0867C3.76536 14.0751 3.5856 13.9789 3.468 13.8234C3.33301 13.645 3.33301 13.3213 3.33301 12.6738V3.32667Z" fill="#FAAB30" stroke="#FAAB30" stroke-width="2" stroke-linecap="round" stroke-linejoin="round"/>
</svg>
